<?xml version="1.0" encoding="UTF-8" standalone="no"?><!DOCTYPE svg PUBLIC "-//W3C//DTD SVG 1.1//EN" "http://www.w3.org/Graphics/SVG/1.1/DTD/svg11.dtd"><svg width="100%" height="100%" viewBox="0 0 1261 699" version="1.1" xmlns="http://www.w3.org/2000/svg" xmlns:xlink="http://www.w3.org/1999/xlink" xml:space="preserve" xmlns:serif="http://www.serif.com/" style="fill-rule:evenodd;clip-rule:evenodd;stroke-linecap:round;stroke-linejoin:round;stroke-miterlimit:1.5;"><path d="M-343.812,48.115c4.169,23.296 29.725,36.527 53.211,39.435c23.487,2.908 47.783,-0.821 70.647,5.287c40.309,10.769 66.895,49.534 81.529,88.606c14.633,39.073 21.123,81.243 40.135,118.382c19.013,37.139 55.878,69.881 97.455,66.407c-16.184,40.746 -55.801,67.638 -99.644,67.638c-46.362,0 -87.712,-30.071 -101.999,-74.177c-15.274,-47.154 2.259,-103.387 -24.452,-145.14c-14.78,-23.104 -40.304,-36.694 -64.914,-48.803c-24.61,-12.11 -50.44,-24.539 -66.94,-46.449c-16.5,-21.91 -19.797,-56.512 0.536,-74.92" style="fill:#383838;fill-rule:nonzero;"/><rect id="ArtBoard1" x="0" y="0" width="1260.45" height="698.316" style="fill:none;"/><path d="M69.593,247.2c2.833,70.925 2.177,278.382 2.177,278.382c-0,92.258 74.901,167.159 167.159,167.159l848.042,0c92.258,0 167.159,-74.901 167.159,-167.159l0,-334.318c0,-92.258 -74.901,-167.159 -167.159,-167.159c-0,-0 -907.933,2.649 -941.832,0.286c-39.926,-2.783 -137.616,-17.572 -137.616,-17.572c-0,0 36.658,61.498 47.251,93.213c10.395,31.121 12.852,97.903 14.819,147.168Z" style="fill:#6b21a8;stroke:#6b21a8;stroke-width:8.33px;"/></svg>