<?xml version="1.0" encoding="UTF-8" standalone="no"?><!DOCTYPE svg PUBLIC "-//W3C//DTD SVG 1.1//EN" "http://www.w3.org/Graphics/SVG/1.1/DTD/svg11.dtd"><svg width="100%" height="100%" viewBox="0 0 2802 2002" version="1.1" xmlns="http://www.w3.org/2000/svg" xmlns:xlink="http://www.w3.org/1999/xlink" xml:space="preserve" xmlns:serif="http://www.serif.com/" style="fill-rule:evenodd;clip-rule:evenodd;stroke-linejoin:round;stroke-miterlimit:2;"><rect id="ArtBoard2" x="-0" y="0" width="2801.66" height="2001.82" style="fill:none;"/><clipPath id="_clip1"><rect x="-0" y="0" width="2801.66" height="2001.82"/></clipPath><g clip-path="url(#_clip1)"><path d="M2552.96,1996.85c10.389,-111.886 39.083,-221.31 84.936,-323.896c12.78,-28.548 26.846,-56.469 42.198,-83.761c3.944,-7.022 -6.849,-13.331 -10.793,-6.309c-55.83,99.403 -94.944,207.309 -115.775,319.398c-5.795,31.301 -10.15,62.824 -13.066,94.568c-0.741,8.006 11.764,7.956 12.5,-0l-0,-0Z" style="fill:#e6e6e6;fill-rule:nonzero;"/><circle cx="2710.37" cy="1530.08" r="79.167" style="fill:#e6e6e6;"/><path d="M2561.06,1998.96c6.74,-72.585 25.355,-143.573 55.102,-210.126c8.291,-18.521 17.416,-36.634 27.376,-54.339c0.319,-0.592 0.487,-1.254 0.487,-1.927c-0,-2.226 -1.832,-4.057 -4.058,-4.057c-1.391,-0 -2.688,0.715 -3.431,1.891c-36.219,64.487 -61.594,134.491 -75.108,207.208c-3.76,20.307 -6.585,40.757 -8.477,61.35c-0.481,5.195 7.632,5.162 8.109,0l0,0Z" style="fill:#e6e6e6;fill-rule:nonzero;"/><circle cx="2663.18" cy="1696.14" r="51.359" style="fill:#e6e6e6;"/><path d="M2550.82,1994.11c-39.33,-61.377 -68.314,-128.8 -85.793,-199.571c-4.854,-19.703 -8.8,-39.597 -11.837,-59.683c-0.329,-1.944 -2.03,-3.38 -4.001,-3.38c-2.226,-0 -4.057,1.832 -4.057,4.057c-0,0.135 0.006,0.269 0.02,0.402c11.105,73.124 34.154,143.928 68.223,209.576c9.526,18.324 19.876,36.186 31.051,53.587c2.816,4.391 9.192,-0.624 6.394,-4.987l0,-0.001Z" style="fill:#e6e6e6;fill-rule:nonzero;"/><circle cx="2445.09" cy="1692.53" r="51.359" style="fill:#e6e6e6;"/><path d="M1891.21,1952.32l-51.083,-0.004l-24.3,-197.034l75.391,0.004l-0.008,197.034Z" style="fill:#ffb8b8;fill-rule:nonzero;"/><path d="M1803.64,1937.72l98.516,0l-0,62.029l-160.545,-0c-0,-34.028 28.001,-62.029 62.029,-62.029Z" style="fill:#383838;fill-rule:nonzero;"/><path d="M2316.22,1891.27l-46.358,21.462l-104.833,-168.591l68.416,-31.671l82.775,178.8Z" style="fill:#ffb8b8;fill-rule:nonzero;"/><path d="M2230.62,1914.81l89.401,-41.387l26.058,56.289l-145.69,67.446c-14.295,-30.88 -0.648,-68.053 30.231,-82.348Z" style="fill:#383838;fill-rule:nonzero;"/><path d="M616.998,1947.73l48.838,-14.987l-34.567,-195.496l-72.075,22.121l57.804,188.362Z" style="fill:#a0616a;fill-rule:nonzero;"/><path d="M773.931,1949.19l-153.479,47.102l-18.199,-59.299l94.181,-28.904c32.53,-9.983 67.514,8.571 77.497,41.101l0,0Z" style="fill:#383838;fill-rule:nonzero;"/><path d="M183.673,1948.85l51.084,0l24.3,-197.033l-75.392,0.004l0.008,197.029Z" style="fill:#a0616a;fill-rule:nonzero;"/><path d="M333.274,1996.28l-160.544,0.007l-0.003,-62.029l98.516,-0.004c34.028,-0.002 62.03,27.998 62.031,62.025l0,0.001Z" style="fill:#383838;fill-rule:nonzero;"/><path d="M1172.78,1070.02c-290.844,0 -530.172,-239.328 -530.172,-530.172c0,-290.844 239.328,-530.172 530.172,-530.172c290.844,-0 530.173,239.328 530.173,530.172c-0.329,290.72 -239.453,529.844 -530.173,530.172Zm0,-1046.12c-283.042,0 -515.951,232.909 -515.951,515.951c0,283.042 232.909,515.951 515.951,515.951c283.043,-0 515.951,-232.909 515.951,-515.951c-0.32,-282.921 -233.029,-515.631 -515.951,-515.951Z" style="fill:#e6e6e6;fill-rule:nonzero;"/><path d="M1445.66,956.39c7.859,-11.054 20.612,-17.634 34.175,-17.634c12.921,-0 25.142,5.972 33.082,16.166l140.974,-47.916l-19.543,74.865l-130.876,34.024c-6.974,4.725 -15.207,7.252 -23.631,7.252c-23.111,-0 -42.129,-19.018 -42.129,-42.129c0,-8.839 2.782,-17.457 7.948,-24.628Z" style="fill:#ffb8b8;fill-rule:nonzero;"/><path d="M2139.95,1253.53c4.515,-6.846 6.923,-14.87 6.923,-23.071c0,-16.703 -9.988,-31.878 -25.33,-38.483l10.795,-148.504l-67.512,37.801l0.1,135.226c-1.6,4.516 -2.417,9.272 -2.417,14.063c-0,23.11 19.016,42.126 42.126,42.126c14.241,0 27.551,-7.221 35.315,-19.158l-0,-0Z" style="fill:#ffb8b8;fill-rule:nonzero;"/><path d="M2123.16,676.251l18.46,472.576l-75,-4.167l-16.667,-495.833l15.817,-7.444c5.364,-2.524 11.219,-3.833 17.148,-3.833c21.5,0 39.403,17.217 40.242,38.701Z" style="fill:#312e81;fill-rule:nonzero;"/><path d="M1769.92,1309.29l52.683,601.204l70.833,-8.333l52.35,-549.167l289.317,524.166l75,-20.833c-0,0 -241.4,-722.083 -260.15,-782.499c-20.555,-66.231 -183.333,-91.667 -183.333,-91.667l-6.25,-6.25c-69.945,94.157 -97.961,216.327 -90.45,333.379Z" style="fill:#383838;fill-rule:nonzero;"/><circle cx="2050.57" cy="486.888" r="102.338" style="fill:#ffb8b8;"/><path d="M2114.82,684.35l-71.124,370.708c-0,-0 -108.085,-21.583 -146.584,-47.583c-15.251,-10.334 -29.084,-21 -40.752,-30.667c-2.29,-1.875 -4.457,-3.75 -6.581,-5.542c-19.251,-16.458 -31.084,-28.708 -31.084,-28.708c0,-0 6.165,-30.208 13.707,-65.958c8.417,-40.042 18.626,-87.084 23.834,-106.292c11.459,-42.125 50.792,-91.208 81.458,-124.625c22.594,-24.659 57.079,-34.875 89.459,-26.5l55.499,14.333c22.335,5.762 36.523,28.182 32.168,50.834Z" style="fill:#312e81;fill-rule:nonzero;"/><path d="M1942.82,846.266c-0,0 -38.249,79.5 -93.04,125c-19.251,-16.458 -31.084,-28.708 -31.084,-28.708c0,-0 6.165,-30.208 13.707,-65.958c45.917,-24.25 93.252,-39.542 110.417,-30.334Z" style="fill-opacity:0.2;fill-rule:nonzero;"/><path d="M2010.66,700.745c-3.777,-1.926 -7.725,-3.495 -11.794,-4.686c-16.863,-4.621 -34.965,-0.45 -48.105,11.084l-224.823,164.679l-178.81,60.146l32.308,76.419l266.565,-65.099l176.791,-157.115c10.445,-10.018 16.357,-23.88 16.357,-38.352c-0,-19.741 -11,-37.919 -28.489,-47.076Z" style="fill:#312e81;fill-rule:nonzero;"/><path d="M2056.63,588.283c14.565,-21.801 26.06,-52.031 10.023,-72.774c-15.829,-20.476 -47.05,-17.459 -71.294,-26.52c-33.766,-12.619 -53.35,-52.288 -47.242,-87.815c6.107,-35.526 34.626,-64.977 68.6,-77.027c33.973,-12.05 72.285,-8.131 105.554,5.746c40.956,17.082 76.089,50.126 90.821,91.984c14.732,41.858 6.856,92.117 -23.706,124.29c-32.766,34.493 -84.19,43.686 -131.761,43.128" style="fill:#383838;fill-rule:nonzero;"/><path d="M196.676,1294.37c-8.264,-7.245 -13.01,-17.717 -13.01,-28.707c-0,-11.593 5.28,-22.577 14.335,-29.817l39.606,-498.727l80.545,20.124l-64.49,486.494c4.482,6.435 6.885,14.092 6.885,21.934c0,21.057 -17.327,38.383 -38.383,38.383c-9.392,0 -18.466,-3.447 -25.488,-9.684Z" style="fill:#a0616a;fill-rule:nonzero;"/><circle cx="387.138" cy="445.51" r="102.338" style="fill:#a0616a;"/><path d="M247.36,747.008c-24.32,-33.387 -25.069,-79.372 1.129,-111.307c17.096,-20.841 45.693,-37.518 93.438,-37.518c127.262,-0 175.534,100.932 175.534,100.932c0,-0 52.66,96.544 21.942,184.311c-30.719,87.766 -30.719,96.543 -30.719,96.543l-201.864,-17.553c0,-0 34.055,-87.028 -59.46,-215.408Z" style="fill:#6b21a8;fill-rule:nonzero;"/><path d="M185.111,834.374l43.487,-142.274c8.721,-28.523 35.23,-48.139 65.056,-48.139c10.848,0 21.54,2.595 31.182,7.568c31.698,16.417 45.4,55.1 31.104,87.81l-55.286,125.907l-115.543,-30.872Z" style="fill:#6b21a8;fill-rule:nonzero;"/><path d="M504.296,958.027l171.146,886.446l-92.156,26.33l-223.805,-583.65l-100.932,596.815l-96.544,13.165c0,0 -42.349,-789.66 144.816,-934.717l197.475,-4.389Z" style="fill:#383838;fill-rule:nonzero;"/><path d="M734.322,866.019c-1.483,1.765 -2.824,3.645 -4.011,5.622l-206.396,10.007l-39.743,-121.332l-69.008,32.798l64.949,180.714l255.259,-49.92c8.279,9.04 19.99,14.194 32.248,14.194c23.991,-0 43.733,-19.742 43.733,-43.733c-0,-23.991 -19.742,-43.732 -43.733,-43.732c-12.81,-0 -24.994,5.628 -33.298,15.382l-0,-0Z" style="fill:#a0616a;fill-rule:nonzero;"/><path d="M384.069,711.86c-0.311,-2.639 -0.466,-5.293 -0.466,-7.95c-0,-37.316 30.706,-68.023 68.023,-68.023c1.416,-0 2.832,0.044 4.246,0.133c35.625,2.286 63.724,32.197 63.784,67.895l-0,137.508l-118.205,18.188l-17.382,-147.751Z" style="fill:#6b21a8;fill-rule:nonzero;"/><path d="M409.644,548.775c-15.36,-0.067 -27.209,-16.238 -26.521,-31.583c0.689,-15.344 10.995,-28.845 23.411,-37.887c12.417,-9.042 26.979,-14.549 40.825,-21.197c13.847,-6.648 27.573,-14.94 36.122,-27.701c10.472,-16.934 12.064,-37.95 4.264,-56.268c-7.955,-18.068 -21.619,-33.037 -38.888,-42.601c-25.693,-14.894 -56.036,-19.691 -85.07,-13.45c-28.702,6.296 -71.477,23.729 -88.293,47.826l-17.534,47.742c-17.866,21.483 -4.033,53.388 6.95,79.082c10.982,25.693 34.367,45.024 60.754,54.214c26.77,8.602 55.434,9.462 82.671,2.478" style="fill:#383838;fill-rule:nonzero;"/><path d="M316.116,389.774c-7.537,-12.08 -20.601,-19.764 -34.107,-24.273c-10.944,-3.653 -22.405,-5.516 -33.943,-5.516c-56.604,0 -103.951,44.84 -107.026,101.362c-1.431,26.309 6.807,52.038 11.648,77.938c4.841,25.9 5.804,54.506 -8.477,76.65c-10.877,16.866 -29.016,27.485 -46.92,36.552c-14.922,7.557 -31.063,14.649 -47.722,13.143c-16.658,-1.506 -33.401,-14.7 -32.959,-31.421c-5.577,11.989 -9.343,24.74 -11.174,37.835c-1.172,13.149 2.069,27.338 11.567,36.508c13.805,13.327 35.677,12.352 54.649,9.477c41.07,-6.226 82.659,-17.898 115.106,-43.835c32.447,-25.937 53.978,-68.646 45.433,-109.297c-3.57,-16.981 -11.958,-32.483 -18.737,-48.457c-6.778,-15.974 -12.07,-33.446 -8.956,-50.517c3.729,-17.793 15.174,-33.041 31.219,-41.59c16.034,-8.338 34.392,-11.122 52.177,-7.913c11.663,1.914 26.226,4.886 33.143,-4.697c3.735,-6.186 3.583,-14.001 -0.39,-20.036c-3.991,-5.859 -9.074,-10.895 -14.97,-14.832" style="fill:#383838;fill-rule:nonzero;"/><g transform="matrix(0.982113,0.188295,-0.188295,0.982113,-202.051,6.39018)"><text x="1004.86px" y="433.183px" style="font-family:'Cochin-Bold', 'Cochin';font-weight:700;font-size:458.333px;fill:#6b21a8;">STC</text></g><path d="M2217.33,467.618c4.169,23.296 29.725,36.527 53.212,39.435c23.487,2.908 47.782,-0.821 70.647,5.287c40.309,10.769 66.895,49.534 81.528,88.607c14.633,39.072 21.123,81.242 40.136,118.381c19.012,37.139 55.877,69.881 97.455,66.407c-16.185,40.746 -55.802,67.638 -99.644,67.638c-46.362,0 -87.713,-30.071 -101.999,-74.177c-15.274,-47.153 2.259,-103.387 -24.452,-145.139c-14.781,-23.105 -40.304,-36.695 -64.915,-48.804c-24.61,-12.11 -50.44,-24.539 -66.94,-46.449c-16.5,-21.909 -19.797,-56.512 0.537,-74.919" style="fill:#383838;fill-rule:nonzero;"/><g transform="matrix(0.982113,0.188295,-0.188295,0.982113,-206.123,7.58665)"><text x="996.528px" y="412.35px" style="font-family:'Cochin-Bold', 'Cochin';font-weight:700;font-size:458.333px;fill:#e6e6e6;">STC</text></g></g></svg>